<svg fill="#FFFFFF" xmlns="http://www.w3.org/2000/svg" viewBox="0 0 24 24" width="24px"
    height="24px">
    <path
        d="M 7 2 C 5.3550302 2 4 3.3550302 4 5 L 4 19 C 4 20.64497 5.3550302 22 7 22 L 20 22 L 20 20 L 7 20 C 6.4349698 20 6 19.56503 6 19 C 6 18.43497 6.4349698 18 7 18 L 20 18 L 20 16 L 20 2 L 16 2 L 10 2 L 7 2 z M 7 4 L 10 4 L 10 12.123047 L 11.574219 11.019531 L 13 10.017578 L 16 12.123047 L 16 4 L 18 4 L 18 16 L 7 16 C 6.6481575 16 6.3148915 16.07394 6 16.1875 L 6 5 C 6 4.4349698 6.4349698 4 7 4 z M 12 4 L 14 4 L 14 8.2773438 L 13 7.5761719 L 12 8.2773438 L 12 4 z" />
</svg>
