<?xml version="1.0"?>
<svg fill="#FFFFFF" xmlns="http://www.w3.org/2000/svg" viewBox="0 0 50 50" width="24px"
    height="24px">
    <path
        d="M 11.939453 4 C 10.319453 4 9 5.3003906 9 6.9003906 L 9 12 L 8 12 A 1.0001 1.0001 0 1 0 8 14 L 12 14 A 1.0001 1.0001 0 0 0 12.863281 13.525391 C 12.942899 13.668717 13 13.825263 13 14 C 13 14.55 12.55 15 12 15 L 9 15 L 9 18 L 8 18 A 1.0001 1.0001 0 1 0 8 20 L 12 20 A 1.0001 1.0001 0 0 0 12.863281 19.525391 C 12.942899 19.668717 13 19.825263 13 20 C 13 20.55 12.55 21 12 21 L 9 21 L 9 24 L 8 24 A 1.0001 1.0001 0 1 0 8 26 L 12 26 A 1.0001 1.0001 0 0 0 12.863281 25.525391 C 12.942899 25.668717 13 25.825263 13 26 C 13 26.55 12.55 27 12 27 L 9 27 L 9 30 L 8 30 A 1.0001 1.0001 0 1 0 8 32 L 12 32 A 1.0001 1.0001 0 0 0 12.863281 31.525391 C 12.942899 31.668717 13 31.825263 13 32 C 13 32.55 12.55 33 12 33 L 9 33 L 9 36 L 8 36 A 1.0001 1.0001 0 1 0 8 38 L 12 38 A 1.0001 1.0001 0 0 0 12.863281 37.525391 C 12.942899 37.668717 13 37.825263 13 38 C 13 38.55 12.55 39 12 39 L 9 39 L 9 43.099609 C 9 44.699609 10.319453 46 11.939453 46 L 40.060547 46 C 41.680547 46 43 44.699609 43 43.099609 L 43 6.9003906 C 43 5.3003906 41.680547 4 40.060547 4 L 11.939453 4 z M 20 13 L 36 13 L 36 23 L 20 23 L 20 13 z M 20 27 L 36 27 L 36 29 L 20 29 L 20 27 z M 20 31 L 36 31 L 36 33 L 20 33 L 20 31 z M 20 35 L 36 35 L 36 37 L 20 37 L 20 35 z" />
</svg>
