<svg xmlns="http://www.w3.org/2000/svg" xmlns:xlink="http://www.w3.org/1999/xlink"
    viewBox="0,0,256,256" width="24px" height="24px">
    <g fill="white" fill-rule="evenodd" stroke="none" stroke-width="1" stroke-linecap="butt"
        stroke-linejoin="miter" stroke-miterlimit="10" stroke-dasharray="" stroke-dashoffset="0"
        font-family="none" font-weight="none" font-size="none" text-anchor="none"
        style="mix-blend-mode: normal">
        <g transform="scale(10.66667,10.66667)">
            <path
                d="M12,1.25c-5.933,0 -10.75,4.817 -10.75,10.75c0,5.933 4.817,10.75 10.75,10.75c5.933,0 10.75,-4.817 10.75,-10.75c0,-5.933 -4.817,-10.75 -10.75,-10.75zM12,2.75c5.105,0 9.25,4.145 9.25,9.25c0,2.12592 -0.72595,4.07965 -1.93359,5.64258c-1.91995,-1.78907 -4.48796,-2.89258 -7.31641,-2.89258c-2.82845,0 -5.39646,1.10351 -7.31641,2.89258c-1.20764,-1.56293 -1.93359,-3.51666 -1.93359,-5.64258c0,-5.105 4.145,-9.25 9.25,-9.25zM12,5.25c-2.346,0 -4.25,1.904 -4.25,4.25c0,2.346 1.904,4.25 4.25,4.25c2.346,0 4.25,-1.904 4.25,-4.25c0,-2.346 -1.904,-4.25 -4.25,-4.25zM12,6.75c1.518,0 2.75,1.232 2.75,2.75c0,1.518 -1.232,2.75 -2.75,2.75c-1.518,0 -2.75,-1.232 -2.75,-2.75c0,-1.518 1.232,-2.75 2.75,-2.75zM12,16.25c2.43957,0 4.65325,0.95446 6.30664,2.5c-1.65354,1.5457 -3.86696,2.5 -6.30664,2.5c-2.43968,0 -4.6531,-0.9543 -6.30664,-2.5c1.65339,-1.54554 3.86707,-2.5 6.30664,-2.5z"></path>
        </g>
    </g>
</svg>
